# xmcd
#
# Track frame offsets: 
#        150
#        2837
#        6333
#        9499
#        24621
#        25076
#        41791
#        42778
#        55764
#        58482
#        61466
#        76833
#        90632
#        105292
#        107624
#        110629
#        132029
#        132336
#        136380
#        153365
#        166355
#        168727
#
# Disc length: 2550 seconds
#
# Revision: 0
# Processed by: cddbd v1.5.2PL0 Copyright (c) Steve Scherf et al.
# Submitted via: ExactAudioCopy v0.95b3
#
DISCID=1e09f416
DTITLE=Jimi Hendrix Experience  - Brian Matthews Introduces the JHE fr
DTITLE=om the BBC (BBC Transcriptions) - APE
DYEAR=1900
DGENRE=
TTITLE0=The Jimi Hendrix Experience - Introduction by Richard Skinner
TTITLE1=The Jimi Hendrix Experience - Program introduction by Brian Ma
TTITLE1=tthews
TTITLE2=The Jimi Hendrix Experience - Program introduction by B.M.
TTITLE3=The Jimi Hendrix Experience - Little Miss Lover
TTITLE4=The Jimi Hendrix Experience - Announcement by B.M.
TTITLE5=The Jimi Hendrix Experience - Driving South
TTITLE6=The Jimi Hendrix Experience - Announcement by B.M.
TTITLE7=The Jimi Hendrix Experience - Hound Dog (Introduction I)
TTITLE8=The Jimi Hendrix Experience - Program outro by B.M.
TTITLE9=The Jimi Hendrix Experience - Program introduction by B.M.
TTITLE10=The Jimi Hendrix Experience - Day Tripper
TTITLE11=The Jimi Hendrix Experience - Wait Until Tomorrow
TTITLE12=The Jimi Hendrix Experience - Spanish Castle Magic
TTITLE13=The Jimi Hendrix Experience - Program outro by B.M.
TTITLE14=The Jimi Hendrix Experience - Program introduction by B.M.
TTITLE15=The Jimi Hendrix Experience - Experiencing the Blues (Catfish
TTITLE15=Blues)
TTITLE16=The Jimi Hendrix Experience - Announcement by B.M.
TTITLE17=The Jimi Hendrix Experience - Introducing the Experience and 
TTITLE17=an interview with Jimi
TTITLE18=The Jimi Hendrix Experience - The Burning of the Midnight Lam
TTITLE18=p
TTITLE19=The Jimi Hendrix Experience - Hound Dog (Introduction II)
TTITLE20=The Jimi Hendrix Experience - Program outro by B.M.
TTITLE21=The Jimi Hendrix Experience - Interview with Jimi by B.M. - H
TTITLE21=ey Joe
EXTD=
EXTT0=
EXTT1=
EXTT2=
EXTT3=
EXTT4=
EXTT5=
EXTT6=
EXTT7=
EXTT8=
EXTT9=
EXTT10=
EXTT11=
EXTT12=
EXTT13=
EXTT14=
EXTT15=
EXTT16=
EXTT17=
EXTT18=
EXTT19=
EXTT20=
EXTT21=
PLAYORDER=
